# xmcd CD database file
#
# Track frame offsets:
#	150
#	10956
#	25400
#	39131
#	58384
#	71094
#	85625
#	95870
#	112390
#	129896
#	142120
#	154599
#	168095
#
# Disc length: 2449 seconds
#
# Revision: 0
# Processed by: cddbd v1.5.1PL0 Copyright (c) Steve Scherf et al.
# Submitted via: CDex 1.51
#
DISCID=b0098f0d
DTITLE=Brooks Atwood - This Hat Ain't No Act
DYEAR=2000
DGENRE=Country
TTITLE0=Loves Little Ups and Downs
TTITLE1=Little Boy Blue
TTITLE2=World of Hurt
TTITLE3=I'm Gonna Hate Myself Tomorrow
TTITLE4=Treat Me Like A Dog
TTITLE5=Seven Years Bad Luck
TTITLE6=This Hat Ain't No Act
TTITLE7=Walss Into Windows
TTITLE8=Gone To Pieces
TTITLE9=It'll Be A Jukebox To Me
TTITLE10=Don't Be A Stranger
TTITLE11=Half A Dance
TTITLE12=Wild Dyin' Breed
EXTD=YEAR: 2000
EXTT0=
EXTT1=
EXTT2=
EXTT3=
EXTT4=
EXTT5=
EXTT6=
EXTT7=
EXTT8=
EXTT9=
EXTT10=
EXTT11=
EXTT12=
PLAYORDER=
